<svg width="35" height="35" viewBox="0 0 35 35" fill="none" xmlns="http://www.w3.org/2000/svg">
<g clip-path="url(#clip0_19_447)">
<path d="M17.5 35C27.165 35 35 27.165 35 17.5C35 7.83502 27.165 0 17.5 0C7.83502 0 0 7.83502 0 17.5C0 27.165 7.83502 35 17.5 35Z" fill="#FF0000"/>
<path fill-rule="evenodd" clip-rule="evenodd" d="M25.7399 11.9424C26.0309 12.2334 26.2407 12.5956 26.3481 12.9928C26.9671 15.4844 26.8241 19.4195 26.3602 22.0072C26.2527 22.4044 26.043 22.7666 25.752 23.0576C25.461 23.3486 25.0988 23.5584 24.7015 23.6658C23.2472 24.0625 17.3938 24.0625 17.3938 24.0625C17.3938 24.0625 11.5404 24.0625 10.0861 23.6658C9.68886 23.5584 9.32668 23.3486 9.03567 23.0576C8.74466 22.7666 8.53496 22.4044 8.42748 22.0072C7.80484 19.5264 7.97554 15.5889 8.41545 13.0048C8.52292 12.6075 8.73263 12.2453 9.02364 11.9543C9.31465 11.6633 9.67683 11.4537 10.0741 11.3461C11.5284 10.9495 17.3818 10.9375 17.3818 10.9375C17.3818 10.9375 23.2352 10.9375 24.6895 11.3342C25.0867 11.4416 25.4489 11.6514 25.7399 11.9424ZM20.3746 17.5L15.5188 20.3125V14.6875L20.3746 17.5Z" fill="white"/>
</g>
<defs>
<clipPath id="clip0_19_447">
<rect width="35" height="35" fill="white"/>
</clipPath>
</defs>
</svg>
