<svg width="35" height="35" viewBox="0 0 35 35" fill="none" xmlns="http://www.w3.org/2000/svg">
<g clip-path="url(#clip0_19_433)">
<path fill-rule="evenodd" clip-rule="evenodd" d="M17.4949 0C7.84748 0 0 7.84968 0 17.4998C0 21.327 1.23422 24.8763 3.3323 27.7572L1.15178 34.259L7.87824 32.1093C10.6448 33.9405 13.9464 35 17.5051 35C27.1525 35 35 27.15 35 17.5002C35 7.84999 27.1525 0.000289281 17.5051 0.000289281L17.4949 0ZM12.6094 8.88914C12.27 8.07645 12.0129 8.04568 11.4988 8.02477C11.3238 8.01461 11.1287 8.00446 10.9124 8.00446C10.2437 8.00446 9.5444 8.19986 9.12264 8.63191C8.60857 9.15657 7.3331 10.3807 7.3331 12.8911C7.3331 15.4015 9.16385 17.8294 9.41059 18.1691C9.66777 18.5082 12.9797 23.7346 18.1222 25.8646C22.1436 27.5313 23.3369 27.3768 24.2521 27.1814C25.5891 26.8933 27.2657 25.9053 27.6875 24.7122C28.1093 23.5186 28.1093 22.5 27.9856 22.284C27.8622 22.068 27.5226 21.9449 27.0085 21.6873C26.4945 21.4301 23.995 20.1955 23.5218 20.0309C23.0588 19.8561 22.6168 19.9179 22.2673 20.4118C21.7735 21.1011 21.2902 21.8009 20.8992 22.2224C20.5907 22.5517 20.0865 22.5929 19.665 22.4178C19.0992 22.1815 17.5155 21.6255 15.5611 19.8868C14.0491 18.5393 13.0207 16.8625 12.7226 16.3585C12.4242 15.8443 12.6918 15.5455 12.9281 15.2679C13.1852 14.9488 13.432 14.7226 13.6892 14.4241C13.9464 14.1259 14.0903 13.9715 14.2549 13.6216C14.43 13.2822 14.3063 12.9323 14.1829 12.6751C14.0596 12.4178 13.0311 9.90741 12.6094 8.88914Z" fill="#00E676"/>
</g>
<defs>
<clipPath id="clip0_19_433">
<rect width="35" height="35" fill="white"/>
</clipPath>
</defs>
</svg>
