<svg width="35" height="35" viewBox="0 0 35 35" fill="none" xmlns="http://www.w3.org/2000/svg">
<path d="M26.25 2.1875H8.75C5.12563 2.1875 2.1875 5.12563 2.1875 8.75V26.25C2.1875 29.8744 5.12563 32.8125 8.75 32.8125H26.25C29.8744 32.8125 32.8125 29.8744 32.8125 26.25V8.75C32.8125 5.12563 29.8744 2.1875 26.25 2.1875Z" fill="url(#paint0_radial_19_440)"/>
<path d="M26.25 2.1875H8.75C5.12563 2.1875 2.1875 5.12563 2.1875 8.75V26.25C2.1875 29.8744 5.12563 32.8125 8.75 32.8125H26.25C29.8744 32.8125 32.8125 29.8744 32.8125 26.25V8.75C32.8125 5.12563 29.8744 2.1875 26.25 2.1875Z" fill="url(#paint1_radial_19_440)"/>
<path d="M26.25 2.1875H8.75C5.12563 2.1875 2.1875 5.12563 2.1875 8.75V26.25C2.1875 29.8744 5.12563 32.8125 8.75 32.8125H26.25C29.8744 32.8125 32.8125 29.8744 32.8125 26.25V8.75C32.8125 5.12563 29.8744 2.1875 26.25 2.1875Z" fill="url(#paint2_radial_19_440)"/>
<path d="M25.1562 11.4844C25.1562 12.3904 24.4217 13.125 23.5156 13.125C22.6096 13.125 21.875 12.3904 21.875 11.4844C21.875 10.5783 22.6096 9.84375 23.5156 9.84375C24.4217 9.84375 25.1562 10.5783 25.1562 11.4844Z" fill="white"/>
<path fill-rule="evenodd" clip-rule="evenodd" d="M17.5 22.9688C20.5203 22.9688 22.9688 20.5203 22.9688 17.5C22.9688 14.4797 20.5203 12.0312 17.5 12.0312C14.4797 12.0312 12.0312 14.4797 12.0312 17.5C12.0312 20.5203 14.4797 22.9688 17.5 22.9688ZM17.5 20.7812C19.3122 20.7812 20.7812 19.3122 20.7812 17.5C20.7812 15.6878 19.3122 14.2188 17.5 14.2188C15.6878 14.2188 14.2188 15.6878 14.2188 17.5C14.2188 19.3122 15.6878 20.7812 17.5 20.7812Z" fill="white"/>
<path fill-rule="evenodd" clip-rule="evenodd" d="M6.5625 17.0625C6.5625 13.3872 6.5625 11.5495 7.27777 10.1457C7.90694 8.91087 8.91087 7.90694 10.1457 7.27777C11.5495 6.5625 13.3872 6.5625 17.0625 6.5625H17.9375C21.6128 6.5625 23.4505 6.5625 24.8543 7.27777C26.0891 7.90694 27.0931 8.91087 27.7222 10.1457C28.4375 11.5495 28.4375 13.3872 28.4375 17.0625V17.9375C28.4375 21.6128 28.4375 23.4505 27.7222 24.8543C27.0931 26.0891 26.0891 27.0931 24.8543 27.7222C23.4505 28.4375 21.6128 28.4375 17.9375 28.4375H17.0625C13.3872 28.4375 11.5495 28.4375 10.1457 27.7222C8.91087 27.0931 7.90694 26.0891 7.27777 24.8543C6.5625 23.4505 6.5625 21.6128 6.5625 17.9375V17.0625ZM17.0625 8.75H17.9375C19.8113 8.75 21.085 8.75171 22.0696 8.83214C23.0287 8.9105 23.5191 9.05252 23.8612 9.22684C24.6844 9.6463 25.3537 10.3156 25.7731 11.1388C25.9475 11.4809 26.0895 11.9713 26.1679 12.9304C26.2483 13.915 26.25 15.1887 26.25 17.0625V17.9375C26.25 19.8113 26.2483 21.085 26.1679 22.0696C26.0895 23.0287 25.9475 23.5191 25.7731 23.8612C25.3537 24.6844 24.6844 25.3537 23.8612 25.7731C23.5191 25.9475 23.0287 26.0895 22.0696 26.1679C21.085 26.2483 19.8113 26.25 17.9375 26.25H17.0625C15.1887 26.25 13.915 26.2483 12.9304 26.1679C11.9713 26.0895 11.4809 25.9475 11.1388 25.7731C10.3156 25.3537 9.6463 24.6844 9.22684 23.8612C9.05252 23.5191 8.9105 23.0287 8.83214 22.0696C8.75171 21.085 8.75 19.8113 8.75 17.9375V17.0625C8.75 15.1887 8.75171 13.915 8.83214 12.9304C8.9105 11.9713 9.05252 11.4809 9.22684 11.1388C9.6463 10.3156 10.3156 9.6463 11.1388 9.22684C11.4809 9.05252 11.9713 8.9105 12.9304 8.83214C13.915 8.75171 15.1887 8.75 17.0625 8.75Z" fill="white"/>
<defs>
<radialGradient id="paint0_radial_19_440" cx="0" cy="0" r="1" gradientUnits="userSpaceOnUse" gradientTransform="translate(13.125 25.1563) rotate(-55.3758) scale(27.9121)">
<stop stop-color="#B13589"/>
<stop offset="0.79309" stop-color="#C62F94"/>
<stop offset="1" stop-color="#8A3AC8"/>
</radialGradient>
<radialGradient id="paint1_radial_19_440" cx="0" cy="0" r="1" gradientUnits="userSpaceOnUse" gradientTransform="translate(12.0313 33.9063) rotate(-65.1363) scale(24.7124)">
<stop stop-color="#E0E8B7"/>
<stop offset="0.444662" stop-color="#FB8A2E"/>
<stop offset="0.71474" stop-color="#E2425C"/>
<stop offset="1" stop-color="#E2425C" stop-opacity="0"/>
</radialGradient>
<radialGradient id="paint2_radial_19_440" cx="0" cy="0" r="1" gradientUnits="userSpaceOnUse" gradientTransform="translate(0.546875 3.28125) rotate(-8.1301) scale(42.5369 9.09821)">
<stop offset="0.156701" stop-color="#406ADC"/>
<stop offset="0.467799" stop-color="#6A45BE"/>
<stop offset="1" stop-color="#6A45BE" stop-opacity="0"/>
</radialGradient>
</defs>
</svg>
