<svg width="35" height="35" viewBox="0 0 35 35" fill="none" xmlns="http://www.w3.org/2000/svg">
<g clip-path="url(#clip0_19_437)">
<path d="M17.5 35C27.165 35 35 27.165 35 17.5C35 7.83502 27.165 0 17.5 0C7.83502 0 0 7.83502 0 17.5C0 27.165 7.83502 35 17.5 35Z" fill="#2787F5"/>
<path d="M20.0235 9.27979H14.9765C10.3705 9.27979 9.27979 10.3705 9.27979 14.9765V20.0235C9.27979 24.6295 10.3705 25.7202 14.9765 25.7202H20.0235C24.6295 25.7202 25.7202 24.6295 25.7202 20.0235V14.9765C25.7202 10.3705 24.6179 9.27979 20.0235 9.27979ZM22.5528 21.0096H21.3565C20.904 21.0096 20.7648 20.65 19.9527 19.8263C19.2449 19.1427 18.9318 19.049 18.7564 19.049C18.5127 19.049 18.443 19.1174 18.443 19.4551V20.5341C18.443 20.8243 18.35 20.9983 17.5844 20.9983C16.3198 20.9983 14.916 20.2327 13.9296 18.8053C12.4445 16.7169 12.0384 15.1505 12.0384 14.8258C12.0384 14.6518 12.1068 14.4895 12.4445 14.4895H13.6408C13.9426 14.4895 14.0584 14.6286 14.1743 14.9536C14.766 16.6592 15.7524 18.1559 16.1567 18.1559C16.3075 18.1559 16.3772 18.0875 16.3772 17.7034V15.9397C16.3307 15.1276 15.9014 15.0579 15.9014 14.768C15.9014 14.6289 16.0173 14.4895 16.2032 14.4895H18.0831C18.3384 14.4895 18.4311 14.6286 18.4311 14.9304V17.3086C18.4311 17.5639 18.5469 17.6565 18.6166 17.6565C18.7674 17.6565 18.8952 17.5636 19.1734 17.2854C20.032 16.3225 20.6469 14.8374 20.6469 14.8374C20.7283 14.6634 20.8674 14.5011 21.1692 14.5011H22.3655C22.725 14.5011 22.8064 14.6867 22.725 14.942C22.5743 15.6382 21.1125 17.7034 21.1125 17.7034C20.985 17.9122 20.9385 18.0052 21.1125 18.2369C21.2399 18.4109 21.6593 18.7705 21.9362 19.0955C22.4468 19.6766 22.8413 20.1629 22.9455 20.4993C23.0634 20.8356 22.8891 21.0096 22.5528 21.0096Z" fill="white"/>
</g>
<defs>
<clipPath id="clip0_19_437">
<rect width="35" height="35" fill="white"/>
</clipPath>
</defs>
</svg>
