<svg width="20" height="20" viewBox="0 0 20 20" fill="none" xmlns="http://www.w3.org/2000/svg">
<g clip-path="url(#clip0_276_2)">
<path d="M10 20C15.5228 20 20 15.5228 20 10C20 4.47715 15.5228 0 10 0C4.47715 0 0 4.47715 0 10C0 15.5228 4.47715 20 10 20Z" fill="#343434"/>
<path d="M11.8419 4H8.15809C4.79609 4 4 4.79609 4 8.15809V11.8419C4 15.2039 4.79609 16 8.15809 16H11.8419C15.2039 16 16 15.2039 16 11.8419V8.15809C16 4.79609 15.1954 4 11.8419 4ZM13.6881 12.5617H12.8149C12.4846 12.5617 12.383 12.2992 11.7903 11.698C11.2736 11.199 11.0451 11.1306 10.9171 11.1306C10.7392 11.1306 10.6883 11.1805 10.6883 11.427V12.2146C10.6883 12.4264 10.6205 12.5534 10.0616 12.5534C9.13854 12.5534 8.11393 11.9946 7.39393 10.9528C6.30994 9.42844 6.01355 8.28507 6.01355 8.04807C6.01355 7.92108 6.06345 7.80258 6.30994 7.80258H7.18312C7.40341 7.80258 7.48798 7.90412 7.57256 8.14137C8.00441 9.38628 8.72441 10.4788 9.01954 10.4788C9.12956 10.4788 9.18046 10.4289 9.18046 10.1484V8.86112C9.14653 8.26836 8.83318 8.21746 8.83318 8.0059C8.83318 7.90437 8.91775 7.80258 9.05347 7.80258H10.4256C10.612 7.80258 10.6796 7.90412 10.6796 8.12441V9.86029C10.6796 10.0467 10.7642 10.1143 10.8151 10.1143C10.9251 10.1143 11.0184 10.0464 11.2215 9.84333C11.8482 9.14054 12.297 8.05655 12.297 8.05655C12.3563 7.92956 12.4579 7.81106 12.6782 7.81106H13.5514C13.8138 7.81106 13.8732 7.94653 13.8138 8.13289C13.7038 8.64108 12.6368 10.1484 12.6368 10.1484C12.5437 10.3009 12.5098 10.3687 12.6368 10.5379C12.7298 10.6649 13.0359 10.9273 13.238 11.1646C13.6107 11.5887 13.8986 11.9437 13.9747 12.1892C14.0608 12.4347 13.9336 12.5617 13.6881 12.5617Z" fill="white"/>
</g>
<defs>
<clipPath id="clip0_276_2">
<rect width="20" height="20" fill="white"/>
</clipPath>
</defs>
</svg>
