<svg width="21" height="21" viewBox="0 0 21 21" fill="none" xmlns="http://www.w3.org/2000/svg">
<path d="M10.6667 20.6667C16.1895 20.6667 20.6667 16.1896 20.6667 10.6667C20.6667 5.1439 16.1895 0.666748 10.6667 0.666748C5.14381 0.666748 0.666656 5.1439 0.666656 10.6667C0.666656 16.1896 5.14381 20.6667 10.6667 20.6667Z" fill="#343434"/>
<path fill-rule="evenodd" clip-rule="evenodd" d="M16.3169 6.8558C16.5165 7.05535 16.6603 7.3037 16.734 7.5761C17.1584 9.2846 17.0603 11.9829 16.7422 13.7574C16.6685 14.0298 16.5247 14.2781 16.3252 14.4777C16.1256 14.6772 15.8773 14.821 15.6049 14.8947C14.6076 15.1667 10.5939 15.1667 10.5939 15.1667C10.5939 15.1667 6.58011 15.1667 5.58286 14.8947C5.31046 14.821 5.06211 14.6772 4.86256 14.4777C4.66301 14.2781 4.51921 14.0298 4.44551 13.7574C4.01856 12.0563 4.13561 9.3563 4.43726 7.58435C4.51096 7.3119 4.65476 7.06355 4.85431 6.864C5.05386 6.66445 5.30221 6.5207 5.57461 6.44695C6.57186 6.175 10.5856 6.16675 10.5856 6.16675C10.5856 6.16675 14.5994 6.16675 15.5966 6.43875C15.869 6.51245 16.1174 6.65625 16.3169 6.8558ZM12.6378 10.6667L9.30816 12.5953V8.73815L12.6378 10.6667Z" fill="white"/>
</svg>
