<svg width="100" height="100" viewBox="0 0 100 100" fill="none" xmlns="http://www.w3.org/2000/svg">
<circle cx="50" cy="50" r="50" fill="#313131"/>
<path fill-rule="evenodd" clip-rule="evenodd" d="M49.9922 23C35.1075 23 23 35.1109 23 49.9998C23 55.9045 24.9042 61.3805 28.1413 65.8253L24.777 75.8568L35.155 72.54C39.4234 75.3654 44.5172 77 50.0078 77C64.8925 77 77 64.8886 77 50.0002C77 35.1114 64.8925 23.0004 50.0078 23.0004L49.9922 23ZM42.4545 36.7147C41.9309 35.4608 41.5341 35.4133 40.741 35.3811C40.4709 35.3654 40.17 35.3497 39.8363 35.3497C38.8045 35.3497 37.7256 35.6512 37.0749 36.3178C36.2818 37.1273 34.3139 39.0159 34.3139 42.8891C34.3139 46.7623 37.1385 50.5082 37.5192 51.0323C37.916 51.5556 43.0259 59.6191 50.9599 62.9054C57.1644 65.4768 59.0055 65.2385 60.4176 64.937C62.4804 64.4926 65.0671 62.9682 65.7179 61.1274C66.3686 59.2858 66.3686 57.7143 66.1778 57.381C65.9874 57.0477 65.4635 56.8578 64.6703 56.4604C63.8772 56.0635 60.0208 54.1587 59.2908 53.9047C58.5765 53.6351 57.8944 53.7305 57.3552 54.4925C56.5934 55.556 55.8478 56.6356 55.2445 57.2861C54.7685 57.7941 53.9905 57.8577 53.3403 57.5875C52.4674 57.2229 50.024 56.365 47.0086 53.6825C44.6758 51.6035 43.0891 49.0165 42.6291 48.2388C42.1687 47.4454 42.5816 46.9845 42.9462 46.5562C43.343 46.0639 43.7237 45.7149 44.1205 45.2544C44.5173 44.7943 44.7394 44.556 44.9933 44.0162C45.2634 43.4925 45.0726 42.9527 44.8822 42.5558C44.6919 42.1589 43.1052 38.2857 42.4545 36.7147Z" fill="#00E676"/>
</svg>
